<svg xmlns="http://www.w3.org/2000/svg" viewBox="0 0 181.79 60.29" role="img"><defs><style>.cls-1{fill:#03c;}.cls-2{fill:#231f20;}.cls-3{fill:#2b3a42;}</style></defs><title>logo</title><g id="Layer_2" data-name="Layer 2"><g id="Layer_1-2" data-name="Layer 1"><path class="cls-1" d="M0,47.84c.07-.2.15-.39.21-.58.29-.9.51-1.83.86-2.7A24.16,24.16,0,0,1,4.39,38.9c.88-1.14,1.8-2.25,2.77-3.31a44.29,44.29,0,0,1,3.25-3.32c1.76-1.58,3.57-3.1,5.4-4.59,1.22-1,2.49-1.92,3.78-2.82,1.69-1.17,3.38-2.32,5.12-3.41,1.93-1.21,3.9-2.35,5.88-3.49,1.52-.87,3.08-1.68,4.63-2.52.34-.19.69-.36,1.1-.57-.24.45-.42.89,0,1.3a2,2,0,0,0,1.26.53l-1,.5c-.84.4-1.68.78-2.51,1.19-1.11.54-2.23,1.07-3.32,1.66-1.55.83-3.1,1.67-4.6,2.57-1.93,1.15-3.86,2.31-5.71,3.58s-3.76,2.69-5.58,4.11c-1.25,1-2.41,2.05-3.58,3.11-.81.74-1.61,1.49-2.35,2.29a39,39,0,0,0-4.33,5.44,20.58,20.58,0,0,0-2.36,4.77,15.81,15.81,0,0,0-.61,2.6,10.37,10.37,0,0,0-.09,2.36,7.51,7.51,0,0,0,1,3.16,9.05,9.05,0,0,0,2.84,3,2,2,0,0,0,.25.14l.07-.07c-.06-.08-.11-.17-.18-.25a15.5,15.5,0,0,1-1.3-1.39A6,6,0,0,1,3,52.36a9.34,9.34,0,0,1-.07-1.18,12.56,12.56,0,0,1,.55-3,21.13,21.13,0,0,1,3.49-6.34c.78-1,1.63-2,2.49-3,.71-.79,1.44-1.57,2.22-2.29,1.43-1.3,2.9-2.57,4.38-3.81,1-.81,2-1.58,3-2.31,1.66-1.17,3.32-2.35,5-3.44,2.09-1.32,4.22-2.58,6.36-3.83,1.22-.72,2.47-1.37,3.72-2,1.63-.85,3.27-1.69,4.92-2.5,1.42-.69,2.87-1.33,4.34-2-.13.4-.28.76.06,1.1a1.4,1.4,0,0,0,1.11.39,1.68,1.68,0,0,1-.28.18c-1.3.55-2.61,1.09-3.91,1.65-.91.4-1.81.83-2.71,1.26-1.21.57-2.41,1.13-3.6,1.73s-2.18,1.13-3.25,1.73c-1.71,1-3.42,1.94-5.09,3s-3.16,2-4.67,3.07c-1.89,1.37-3.73,2.79-5.52,4.29-1.38,1.15-2.69,2.4-3.95,3.68a27.9,27.9,0,0,0-3.65,4.39c-.64,1-1.27,2-1.82,3a14.33,14.33,0,0,0-1.23,3.19,9.87,9.87,0,0,0-.29,3.1,6.32,6.32,0,0,0,.69,2.51A7.19,7.19,0,0,0,7,57.07a1.21,1.21,0,0,0,.22.15l.07,0a.9.9,0,0,0-.12-.24A5.16,5.16,0,0,1,5.7,54.14a7.39,7.39,0,0,1,0-2.61,12.18,12.18,0,0,1,1.43-3.81,33.41,33.41,0,0,1,2-3.08A32.11,32.11,0,0,1,13.48,40c1.72-1.55,3.51-3,5.32-4.48a68.25,68.25,0,0,1,7.12-4.92c2.09-1.28,4.22-2.49,6.37-3.68,1.71-.95,3.45-1.84,5.2-2.7s3.44-1.62,5.18-2.4,3.54-1.52,5.31-2.26c.79-.34,1.6-.63,2.46-1-.12.37-.14.69.15.9a5.57,5.57,0,0,0,.76.41l-1.71.65c-.92.35-1.85.69-2.76,1.06-1.39.56-2.77,1.14-4.14,1.73-1,.42-1.94.86-2.9,1.31-1.16.54-2.32,1.06-3.47,1.64-1.37.69-2.74,1.4-4.08,2.14-1.63.9-3.26,1.81-4.85,2.78s-3.38,2.14-5,3.28-3.07,2.23-4.52,3.44S15,40.45,13.59,41.82A29.22,29.22,0,0,0,9.4,47a15.42,15.42,0,0,0-2,4.26,6.36,6.36,0,0,0,.28,4.64,11.79,11.79,0,0,0,1,1.41c0,.06.12.08.19.12l.08,0a1.57,1.57,0,0,0-.12-.3A4.6,4.6,0,0,1,8,53.88a8.66,8.66,0,0,1,.65-2.53,19.81,19.81,0,0,1,3.09-4.89A38.7,38.7,0,0,1,16.18,42,63.29,63.29,0,0,1,23,36.74c2-1.29,4-2.55,6-3.78,1.21-.74,2.46-1.41,3.71-2.07,1.6-.85,3.2-1.69,4.83-2.48s3.18-1.49,4.79-2.2,3.51-1.5,5.28-2.22c1.48-.6,3-1.16,4.48-1.72,1.34-.49,2.68-1,4-1.43.45-.16.92-.3,1.41-.45-.17.66.29.81.8,1l-.68.25c-1.44.49-2.89,1-4.31,1.48-2.31.85-4.62,1.72-6.9,2.63-1.79.72-3.56,1.51-5.32,2.3s-3.38,1.55-5,2.39c-1.49.75-3,1.55-4.42,2.37-1.65.94-3.31,1.88-4.91,2.91C24.86,37,23,38.24,21.21,39.54A39.61,39.61,0,0,0,18.08,42c-1.36,1.2-2.68,2.45-3.94,3.74a22.82,22.82,0,0,0-2.88,3.61A12.57,12.57,0,0,0,9.4,53.43a4.66,4.66,0,0,0,.95,4.31,2,2,0,0,0,.3.28l.08-.05a1,1,0,0,0-.06-.2,3.51,3.51,0,0,1-.7-2,5.31,5.31,0,0,1,.18-1.48A11.19,11.19,0,0,1,12,50.52a25.71,25.71,0,0,1,3.48-4c1.2-1.13,2.45-2.23,3.75-3.24,1.62-1.26,3.27-2.48,5-3.61s3.76-2.35,5.68-3.46c1.51-.88,3.07-1.71,4.62-2.52,1.24-.65,2.49-1.26,3.75-1.85,1.85-.85,3.71-1.69,5.58-2.49s3.56-1.46,5.36-2.14S52.65,26,54.4,25.38c1.39-.48,2.79-1,4.2-1.4,1.58-.49,3.17-.94,4.76-1.4l1.26-.39c0,.46.25.65.62.8l-1,.29c-1.28.39-2.57.76-3.85,1.17-1.72.54-3.45,1.09-5.16,1.68S52,27.29,50.41,27.89,47.45,29,46,29.62s-2.69,1.15-4,1.75S39.58,32.45,38.4,33s-2.55,1.23-3.8,1.9q-2.74,1.47-5.45,3a73.19,73.19,0,0,0-8.34,5.55c-1.26,1-2.46,2-3.66,3.07-.71.62-1.4,1.28-2,2a18,18,0,0,0-3.37,4.66,6.94,6.94,0,0,0-.62,2.11A3.45,3.45,0,0,0,13.82,59a13.61,13.61,0,0,0,3.24.39c1.34,0,2.69,0,4,0,1,0,2.09,0,3.12-.12s2.34-.19,3.5-.34c1.82-.24,3.63-.5,5.43-.8,1.45-.23,2.89-.52,4.32-.82s2.91-.63,4.35-1q2.53-.66,5-1.4c1.55-.45,3.1-.9,4.63-1.4s3-1,4.5-1.58,3-1.13,4.56-1.7l1.71-.68a1.1,1.1,0,0,1,.36-.07h3.23a.2.2,0,0,1,.15.07L65,50l-3.43,1.39c-.82.32-1.65.63-2.48.93s-1.93.73-2.9,1.06-2.17.73-3.26,1.07-1.91.61-2.86.89-1.84.52-2.77.77-1.87.49-2.81.72-1.74.41-2.61.6-1.74.39-2.62.57-1.51.28-2.27.42l-2.4.42c-1,.16-2,.31-3,.43s-1.94.22-2.91.33-2.08.25-3.12.34c-.8.07-1.6,0-2.39.14a7,7,0,0,1-1.44.11c-.06,0-.13.07-.19.1H15.71c-.07,0-.13-.09-.19-.09l-1.13-.13c-.47,0-.93-.07-1.39-.14-1-.16-2.05-.32-3.07-.51A17.34,17.34,0,0,1,6.1,58.23a11.48,11.48,0,0,1-4.18-2.91A8.3,8.3,0,0,1,.36,52.64l-.36-1Z"/><path class="cls-2" d="M181.79,34.26l-1,0c-.22,0-.27-.13-.27-.33,0-.62,0-1.25,0-1.87,0-.15,0-.29,0-.43l-.09,0a1.3,1.3,0,0,0-.13.3c-.18.69-.36,1.38-.53,2.06a.33.33,0,0,1-.4.3c-.84,0-.75.14-1-.7-.14-.57-.29-1.15-.44-1.72a.36.36,0,0,0-.14-.23,2.46,2.46,0,0,0,0,.37c0,.64,0,1.28,0,1.91,0,.27-.07.39-.35.37h-.66c-.22,0-.32-.07-.32-.3,0-1.35,0-2.69,0-4,0-.25.1-.32.34-.31.46,0,.92,0,1.37,0,.28,0,.39.1.45.36.12.54.26,1.07.39,1.61a.47.47,0,0,0,.18.25,2.67,2.67,0,0,0,.09-.26c.14-.55.29-1.09.42-1.63a.38.38,0,0,1,.44-.34c.54,0,1.08,0,1.62,0Z"/><path class="cls-1" d="M62.78,18.28a2,2,0,0,0-.35,0c-1.91.36-3.82.74-5.73,1.07a17.85,17.85,0,0,1-3.58.2,1.59,1.59,0,0,1-.37-.06c-.42-.13-.52-.49-.18-.77a7.53,7.53,0,0,1,1.36-.88c1-.49,2.11-.92,3.17-1.38.13-.06.26-.15.39-.22v-.11a2.82,2.82,0,0,0-.41,0c-.89.18-1.79.38-2.69.54-1.21.21-2.44.41-3.66.59s-2.32.35-3.49.46a15.12,15.12,0,0,1-2,0,.49.49,0,0,1-.34-.22.35.35,0,0,1,.11-.32,9.55,9.55,0,0,1,1.43-1c1.26-.58,2.55-1.08,3.82-1.61.37-.15.75-.26,1.12-.4a.87.87,0,0,0,.11-.09V14a1.7,1.7,0,0,0-.39,0c-1.36.29-2.72.61-4.08.88-.89.19-1.78.33-2.67.47-1.06.16-2.12.34-3.19.45s-2.07.14-3.11.19a2.94,2.94,0,0,1-.65-.07A.55.55,0,0,1,37,15a8.44,8.44,0,0,1,1.38-1.29,28.27,28.27,0,0,1,4.23-2.46c1.5-.73,3-1.47,4.52-2.18S50.25,7.69,51.81,7c.75-.32,1.53-.6,2.3-.86,1.46-.5,2.92-1,4.38-1.45,1-.32,2-.6,3.06-.87s2.07-.55,3.11-.8c.83-.2,1.66-.37,2.5-.54,1.3-.26,2.61-.52,3.92-.76.85-.16,1.7-.27,2.56-.4l2.7-.41L77.49.81,79.63.58C80.5.5,81.38.41,82.26.35,83.6.27,85,.27,86.28.14A70.43,70.43,0,0,1,93.4,0c1.23,0,2.47.19,3.71.3.88.08,1.76.14,2.64.25s1.77.25,2.64.42c1.13.21,2.25.41,3.36.68a25.91,25.91,0,0,1,5,1.73,15.13,15.13,0,0,1,3.12,1.92A7.14,7.14,0,0,1,116.34,9a6.91,6.91,0,0,1,0,3.61,13,13,0,0,1-2.59,4.94,39.77,39.77,0,0,1-2.77,3.17c-1.17,1.15-2.4,2.25-3.68,3.28-2.08,1.68-4.22,3.3-6.34,4.92-1.06.81-2.14,1.59-3.23,2.36a1.16,1.16,0,0,1-.6.2c-1.12,0-2.23,0-3.35,0l-.14-.05c.35-.33.68-.63,1-.95.78-.83,1.58-1.64,2.3-2.51a8.27,8.27,0,0,0,1.72-3.09A3.1,3.1,0,0,0,97,21.05a6.76,6.76,0,0,0-2.24-.84c-.75-.15-1.52-.26-2.28-.37a34.26,34.26,0,0,0-5.64-.1c-.77,0-1.53.07-2.3.14s-1.54.19-2.31.28-1.41.14-2.11.25c-1.27.18-2.55.37-3.82.6-1.86.32-3.72.69-5.58,1-1.14.21-2.29.44-3.44.6A3.94,3.94,0,0,1,66,22.53c-.34-.07-.4-.39-.11-.59a11.24,11.24,0,0,1,1.44-.8c.49-.22,1-.36,1.52-.55.07,0,.11-.14.17-.21s-.16-.09-.23-.08l-2,.24-2.47.28-.66,0c-1.15.06-2.3.15-3.45.17a8.31,8.31,0,0,1-1.48-.18c-.34-.06-.44-.37-.17-.57a6.39,6.39,0,0,1,1.29-.75c.81-.34,1.66-.6,2.49-.9a4.36,4.36,0,0,0,.42-.23Z"/><path class="cls-2" d="M59.94,37.06a1.23,1.23,0,0,0,.12-.26q.77-2.77,1.52-5.55A.35.35,0,0,1,62,31c.93,0,1.87,0,2.81,0a.35.35,0,0,1,.4.31l1.53,5.57a1.91,1.91,0,0,0,.13.29,1.61,1.61,0,0,0,.12-.27c.35-1.84.7-3.69,1-5.53,0-.29.18-.38.46-.37.87,0,1.73,0,2.6,0,.46,0,.47,0,.37.45-.39,1.75-.77,3.5-1.16,5.25s-.83,3.73-1.23,5.59a.4.4,0,0,1-.47.37q-1.39,0-2.79,0c-.27,0-.41-.07-.48-.35-.52-1.91-1.06-3.82-1.6-5.73-.06-.24-.12-.48-.19-.72,0-.08-.08-.15-.14-.29a1.65,1.65,0,0,0-.12.25c-.6,2.18-1.21,4.36-1.8,6.54a.34.34,0,0,1-.4.29H58.18a.37.37,0,0,1-.43-.34c-.43-2-.86-3.93-1.3-5.89-.37-1.67-.75-3.34-1.12-5-.09-.41-.08-.42.34-.42.89,0,1.78,0,2.66,0,.3,0,.4.11.45.38.31,1.68.64,3.36.95,5,.05.22.07.45.11.67Z"/><path class="cls-2" d="M106.23,35.15c0-.23,0-.46,0-.7s.08-.32.31-.32H109c.23,0,.31.09.31.32,0,2.74,0,5.48,0,8.22a3.24,3.24,0,0,1-2.59,3.13,10.17,10.17,0,0,1-4.46,0,2.54,2.54,0,0,1-2-2.71c0-.22.08-.32.33-.28.83.1,1.67.2,2.51.28a.51.51,0,0,1,.46.31c.29.58.82.62,1.37.57a1.07,1.07,0,0,0,1-.79,10.62,10.62,0,0,0,.13-2l-.25.17a3.29,3.29,0,0,1-5.19-.76,5.26,5.26,0,0,1-.57-3.33,4,4,0,0,1,.91-2.25c1.19-1.39,4-1.46,5.1.09,0,0,.07.07.1.1Zm-.11,3.07-.07,0a5.54,5.54,0,0,0,0-.56,2.8,2.8,0,0,0-.13-.41,1.42,1.42,0,0,0-1.28-.9,1.17,1.17,0,0,0-1.15.76,3.08,3.08,0,0,0-.06,2,1.23,1.23,0,0,0,1.05.91,1.21,1.21,0,0,0,1.33-.62A7.2,7.2,0,0,0,106.12,38.22Z"/><path class="cls-2" d="M131.66,35.25a2,2,0,0,0,.26-.21,3.24,3.24,0,0,1,5.36.69,5.77,5.77,0,0,1,.06,5.3,3.45,3.45,0,0,1-5.12,1.08l-.29-.21c0,.15,0,.24,0,.33,0,1.06,0,2.13,0,3.19,0,.29-.09.38-.37.38-.86,0-1.71,0-2.57,0-.27,0-.38-.07-.38-.36q0-5.48,0-11c0-.25.08-.36.34-.35h2.41c.24,0,.34.1.33.34S131.66,34.92,131.66,35.25Zm.16,3.07a6.91,6.91,0,0,0,.26,1.17,1.25,1.25,0,0,0,1.16.85,1.12,1.12,0,0,0,1.18-.75,3.24,3.24,0,0,0,0-2.41,1.16,1.16,0,0,0-1.11-.81,1.18,1.18,0,0,0-1.2.72A6.33,6.33,0,0,0,131.82,38.32Z"/><path class="cls-2" d="M149,41.66l-.18.11a4.56,4.56,0,0,1-4.67.72,2.21,2.21,0,0,1-1.45-2.14,2.06,2.06,0,0,1,1.43-2.15c.86-.3,1.77-.45,2.66-.68.61-.16,1.22-.33,1.83-.52a.41.41,0,0,0,.19-.33.74.74,0,0,0-.64-.73,2.29,2.29,0,0,0-1.44.14,1.45,1.45,0,0,0-.53.54c-.13.19-.23.29-.47.26-.82-.11-1.64-.19-2.46-.28-.23,0-.32-.09-.25-.36a2.82,2.82,0,0,1,2.46-2.14,11.85,11.85,0,0,1,4.2,0,2.76,2.76,0,0,1,2.34,2.95c0,1.26,0,2.52,0,3.78a6.44,6.44,0,0,0,.27,1.43c.07.31.08.34-.25.34-.76,0-1.52,0-2.28,0a.57.57,0,0,1-.63-.46C149.13,42,149.09,41.85,149,41.66Zm-.16-2.6a.63.63,0,0,0,0-.23c0-.07-.15-.16-.2-.14-.7.21-1.4.41-2.08.66a.78.78,0,0,0-.54.94.87.87,0,0,0,.87.67A1.79,1.79,0,0,0,148.87,39.06Z"/><path class="cls-2" d="M89,35.33l.2-.21a3.54,3.54,0,0,1,4.4-.74A2.42,2.42,0,0,1,94.67,36a5.47,5.47,0,0,1,.12,1.15c0,1.68,0,3.37,0,5.06,0,.29-.1.39-.39.39-.84,0-1.69,0-2.53,0-.31,0-.4-.11-.4-.4,0-1.42,0-2.84,0-4.26a3,3,0,0,0,0-.52,1,1,0,0,0-1-.91,1.14,1.14,0,0,0-1.2.84,5.69,5.69,0,0,0-.16,1.24c0,1.19,0,2.39,0,3.59,0,.39,0,.41-.41.41-.83,0-1.66,0-2.5,0-.27,0-.36-.1-.36-.37V34.48c0-.25.09-.36.34-.35h2.38c.26,0,.36.1.34.35s0,.55,0,.83Z"/><path class="cls-2" d="M160.8,35.35l.25-.26a3.56,3.56,0,0,1,4.37-.72,2.75,2.75,0,0,1,1.16,2.05,6.06,6.06,0,0,1,0,.85c0,1.64,0,3.29,0,4.94,0,.3-.1.4-.4.4-.84,0-1.69,0-2.53,0-.31,0-.39-.12-.39-.41,0-1.45,0-2.9,0-4.35v-.19c0-.68-.38-1.09-1-1.13a1.16,1.16,0,0,0-1.3,1,7.87,7.87,0,0,0-.12,1.18c0,1.18,0,2.36,0,3.53,0,.29-.07.42-.39.41-.83,0-1.67,0-2.5,0-.27,0-.38-.08-.38-.36q0-3.89,0-7.79c0-.23.08-.34.33-.33h2.38c.26,0,.36.09.34.35s0,.55,0,.83Z"/><path class="cls-2" d="M118.94,42.81a7.64,7.64,0,0,1-2.93-.47,2.88,2.88,0,0,1-1.58-1.8c-.08-.25,0-.34.26-.36.87-.07,1.74-.14,2.62-.23a.38.38,0,0,1,.41.24,1.61,1.61,0,0,0,2.29.54.73.73,0,0,0,.31-.55.71.71,0,0,0-.42-.5c-.68-.2-1.38-.32-2.07-.47-.48-.11-1-.21-1.43-.36a2.39,2.39,0,0,1-1.67-2.09,2.28,2.28,0,0,1,1.43-2.35A5.55,5.55,0,0,1,117.9,34a16.36,16.36,0,0,1,2.8.11A2.89,2.89,0,0,1,123,36c.08.17,0,.25-.17.27-.86.09-1.72.19-2.58.26a.5.5,0,0,1-.36-.21,1.53,1.53,0,0,0-1.94-.44c-.4.27-.39.73,0,.9a5.77,5.77,0,0,0,1.31.28,9.12,9.12,0,0,1,2.52.57,2.48,2.48,0,0,1,.4,4.39,4.79,4.79,0,0,1-2.38.77C119.51,42.8,119.18,42.8,118.94,42.81Z"/><path class="cls-2" d="M80.08,38.36V42.2c0,.39,0,.4-.41.4-.83,0-1.67,0-2.5,0-.28,0-.36-.11-.36-.37V34.49c0-.27.1-.37.37-.36.84,0,1.69,0,2.53,0,.3,0,.37.12.37.39C80.07,35.79,80.08,37.08,80.08,38.36Z"/><path class="cls-2" d="M173.75,29.63c.65,0,1.3,0,1.94,0,.24,0,.34.08.33.32,0,1,.14.83-.82.84-.79,0-.79,0-.79.78s0,1.56,0,2.34c0,.3-.1.4-.38.37h-.62c-.28,0-.39-.07-.39-.37,0-.93,0-1.85,0-2.78,0-.28-.09-.37-.36-.35s-.63,0-.94,0-.31-.07-.31-.29c0-1-.14-.86.82-.87Z"/><path class="cls-2" d="M78.44,33.2c-.42,0-.85,0-1.28,0-.25,0-.36-.09-.35-.34v-1.6c0-.22.08-.31.31-.31h2.66c.21,0,.3.07.3.29q0,.82,0,1.65c0,.23-.1.32-.32.31C79.32,33.19,78.88,33.2,78.44,33.2Z"/><path class="cls-3" d="M104.83,54.16a.72.72,0,0,0-.24-.59,1,1,0,0,0-.64-.19,1.39,1.39,0,0,0-.57.12,1.29,1.29,0,0,0-.45.29l-.37-.45a2,2,0,0,1,.64-.39,2.43,2.43,0,0,1,.82-.14,1.69,1.69,0,0,1,.66.11,1.25,1.25,0,0,1,.46.29,1.31,1.31,0,0,1,.28.45,1.63,1.63,0,0,1,.09.55v1.55c0,.12,0,.25,0,.38a1.34,1.34,0,0,0,0,.33h-.64a2.22,2.22,0,0,1-.06-.51h0a1.32,1.32,0,0,1-.5.44,1.39,1.39,0,0,1-.7.16,1.72,1.72,0,0,1-.44-.06,1.12,1.12,0,0,1-.42-.18,1.13,1.13,0,0,1-.31-.34,1,1,0,0,1-.12-.52.93.93,0,0,1,.21-.64,1.37,1.37,0,0,1,.58-.36,3.07,3.07,0,0,1,.79-.16c.3,0,.6,0,.9,0Zm-.17.61-.55,0a3.35,3.35,0,0,0-.51.09,1.07,1.07,0,0,0-.38.21.46.46,0,0,0-.15.36.53.53,0,0,0,.06.26.55.55,0,0,0,.17.17.64.64,0,0,0,.24.1,1.1,1.1,0,0,0,.26,0,1,1,0,0,0,.76-.29,1.08,1.08,0,0,0,.27-.75v-.19Z"/><path class="cls-3" d="M107.33,52.91c0,.09,0,.19,0,.3s0,.21,0,.28h0a.87.87,0,0,1,.18-.26,1.13,1.13,0,0,1,.27-.22,1.24,1.24,0,0,1,.33-.15,1.58,1.58,0,0,1,.38,0,1.51,1.51,0,0,1,.59.11,1.28,1.28,0,0,1,.66.78,2,2,0,0,1,.08.56v2.21h-.71v-2a2.73,2.73,0,0,0,0-.41,1.21,1.21,0,0,0-.13-.35.64.64,0,0,0-.25-.24.79.79,0,0,0-.4-.09.87.87,0,0,0-.69.32,1.28,1.28,0,0,0-.27.86v1.89h-.7v-2.8c0-.09,0-.22,0-.37s0-.28,0-.39Z"/><path class="cls-3" d="M113.73,56.47H113V51.15h.75Z"/><path class="cls-3" d="M120.64,56.47h-3.12a2.9,2.9,0,0,1-1.12-.2,2.39,2.39,0,0,1-1.45-1.4,3.11,3.11,0,0,1-.2-1.13,2.8,2.8,0,0,1,.21-1.1,2.56,2.56,0,0,1,.58-.86,2.74,2.74,0,0,1,.87-.57,3.08,3.08,0,0,1,1.11-.2,3,3,0,0,1,1.1.2,2.63,2.63,0,0,1,.87.57,2.56,2.56,0,0,1,.58.86,2.8,2.8,0,0,1,.21,1.1A2.51,2.51,0,0,1,120,55a2.39,2.39,0,0,1-.8.84v0h1.46Zm-5.09-2.73a2.48,2.48,0,0,0,.14.82,1.87,1.87,0,0,0,.4.65,1.68,1.68,0,0,0,.61.44,2,2,0,0,0,.82.17,1.94,1.94,0,0,0,.8-.17,1.71,1.71,0,0,0,.62-.44,2,2,0,0,0,.4-.65,2.48,2.48,0,0,0,.14-.82,2.32,2.32,0,0,0-.14-.8,2,2,0,0,0-.39-.66,1.83,1.83,0,0,0-.61-.45,2,2,0,0,0-.82-.17,1.92,1.92,0,0,0-.81.17,1.87,1.87,0,0,0-.62.45,2,2,0,0,0-.4.66A2.32,2.32,0,0,0,115.55,53.74Z"/><path class="cls-3" d="M123.06,55.51h0l1.6-4.36h.81l-2.09,5.32h-.69l-2.08-5.32h.83Z"/><path class="cls-3" d="M126.86,56.47h-.74V51.15h.74Z"/><path class="cls-3" d="M128.38,56.47h-.83l2.31-5.32h.67l2.29,5.32H132l-.54-1.31h-2.53Zm.79-2h2l-1-2.5Z"/><path class="cls-3" d="M137.71,53.81a.89.89,0,0,0-.34-.29,1,1,0,0,0-.48-.12,1.07,1.07,0,0,0-.49.11,1,1,0,0,0-.37.28,1.18,1.18,0,0,0-.23.41,1.57,1.57,0,0,0-.08.49,1.62,1.62,0,0,0,.08.49,1.27,1.27,0,0,0,.23.41,1.17,1.17,0,0,0,.37.28,1.15,1.15,0,0,0,.5.1,1.13,1.13,0,0,0,.49-.1.94.94,0,0,0,.36-.29l.48.43a1.49,1.49,0,0,1-.57.41,1.84,1.84,0,0,1-.76.15,2.15,2.15,0,0,1-.77-.14,1.71,1.71,0,0,1-.6-.38,1.62,1.62,0,0,1-.4-.59,1.92,1.92,0,0,1-.15-.77,2.11,2.11,0,0,1,.14-.77,1.76,1.76,0,0,1,.4-.59,1.68,1.68,0,0,1,.61-.39,2,2,0,0,1,.75-.13,2,2,0,0,1,.75.15,1.37,1.37,0,0,1,.59.43Z"/><path class="cls-3" d="M142.54,54.68a1.87,1.87,0,0,1-.15.76,1.78,1.78,0,0,1-.41.6,1.68,1.68,0,0,1-.61.39,2.1,2.1,0,0,1-.76.14,2.14,2.14,0,0,1-.76-.14,1.77,1.77,0,0,1-.61-.39,1.91,1.91,0,0,1-.4-.6,2,2,0,0,1,0-1.52,2,2,0,0,1,.4-.59,1.91,1.91,0,0,1,.61-.38,1.94,1.94,0,0,1,.76-.14,1.9,1.9,0,0,1,.76.14,1.8,1.8,0,0,1,.61.38,1.84,1.84,0,0,1,.41.59A1.87,1.87,0,0,1,142.54,54.68Zm-.74,0a1.51,1.51,0,0,0-.08-.48,1.18,1.18,0,0,0-.23-.41,1,1,0,0,0-.37-.28,1.24,1.24,0,0,0-1,0,1.14,1.14,0,0,0-.6.69,1.27,1.27,0,0,0-.08.48,1.33,1.33,0,0,0,.08.49,1,1,0,0,0,.23.41,1.06,1.06,0,0,0,.37.29,1.35,1.35,0,0,0,1,0,1.06,1.06,0,0,0,.37-.29,1.18,1.18,0,0,0,.23-.41A1.57,1.57,0,0,0,141.8,54.68Z"/><path class="cls-3" d="M144.64,53a1.18,1.18,0,0,1,.7-.2A1.28,1.28,0,0,1,146,53a1.11,1.11,0,0,1,.46.55A1.28,1.28,0,0,1,147,53a1.44,1.44,0,0,1,.71-.18,1.48,1.48,0,0,1,.59.11,1.23,1.23,0,0,1,.42.32,1.19,1.19,0,0,1,.24.46,2,2,0,0,1,.08.56v2.21h-.71v-2a2.73,2.73,0,0,0,0-.41,1.21,1.21,0,0,0-.13-.35.69.69,0,0,0-.24-.24.75.75,0,0,0-.39-.09.86.86,0,0,0-.41.1.81.81,0,0,0-.28.27.9.9,0,0,0-.16.36,1.93,1.93,0,0,0,0,.42v1.92h-.71V54.35a2.17,2.17,0,0,0,0-.38.83.83,0,0,0-.13-.3.74.74,0,0,0-.23-.2,1,1,0,0,0-.36-.07.81.81,0,0,0-.65.32,1.34,1.34,0,0,0-.26.86v1.89h-.71V53.3q0-.22,0-.39h.67l0,.3v.28h0A1.16,1.16,0,0,1,144.64,53Z"/><path class="cls-3" d="M150.89,58.28h-.7V52.91h.69v.55h0a1.23,1.23,0,0,1,.51-.47,1.59,1.59,0,0,1,.77-.18,1.9,1.9,0,0,1,.73.14,1.85,1.85,0,0,1,.56.4,1.66,1.66,0,0,1,.36.6,2,2,0,0,1,.13.73,2,2,0,0,1-.13.74,1.66,1.66,0,0,1-.36.6,1.63,1.63,0,0,1-.56.4,1.78,1.78,0,0,1-.74.15,1.59,1.59,0,0,1-.72-.17,1.28,1.28,0,0,1-.54-.46h0Zm2.35-3.6a1.51,1.51,0,0,0-.08-.48,1.14,1.14,0,0,0-.59-.7,1.21,1.21,0,0,0-.52-.11,1.14,1.14,0,0,0-.49.11,1.1,1.1,0,0,0-.38.29,1.22,1.22,0,0,0-.25.41,1.57,1.57,0,0,0-.08.49,1.62,1.62,0,0,0,.08.49,1.33,1.33,0,0,0,.25.41,1.21,1.21,0,0,0,.38.28,1.13,1.13,0,0,0,.49.1,1.08,1.08,0,0,0,.52-.11,1.13,1.13,0,0,0,.37-.28,1.2,1.2,0,0,0,.22-.42A1.51,1.51,0,0,0,153.24,54.68Z"/><path class="cls-3" d="M157.17,54.16a.72.72,0,0,0-.24-.59,1,1,0,0,0-.64-.19,1.39,1.39,0,0,0-.57.12,1.35,1.35,0,0,0-.44.29l-.38-.45a2.15,2.15,0,0,1,.64-.39,2.48,2.48,0,0,1,.82-.14,1.71,1.71,0,0,1,.67.11,1.34,1.34,0,0,1,.46.29,1.29,1.29,0,0,1,.27.45,1.63,1.63,0,0,1,.09.55v1.55c0,.12,0,.25,0,.38a2.11,2.11,0,0,0,0,.33h-.64a2.22,2.22,0,0,1-.06-.51h0a1.37,1.37,0,0,1-.49.44,1.46,1.46,0,0,1-.71.16,1.78,1.78,0,0,1-.44-.06,1,1,0,0,1-.41-.18,1.16,1.16,0,0,1-.32-.34,1,1,0,0,1-.12-.52.89.89,0,0,1,.22-.64,1.27,1.27,0,0,1,.57-.36,3.15,3.15,0,0,1,.8-.16,8.7,8.7,0,0,1,.89,0Zm-.17.61-.55,0a3.86,3.86,0,0,0-.51.09,1.07,1.07,0,0,0-.38.21.46.46,0,0,0-.15.36.44.44,0,0,0,.07.26.46.46,0,0,0,.17.17.6.6,0,0,0,.23.1,1.1,1.1,0,0,0,.26,0,1,1,0,0,0,.77-.29,1.12,1.12,0,0,0,.26-.75v-.19Z"/><path class="cls-3" d="M159.67,52.91a2.66,2.66,0,0,1,0,.3c0,.11,0,.21,0,.28h0a1.15,1.15,0,0,1,.19-.26.92.92,0,0,1,.26-.22,1.24,1.24,0,0,1,.33-.15,1.58,1.58,0,0,1,.38,0,1.48,1.48,0,0,1,.59.11,1.23,1.23,0,0,1,.42.32,1.19,1.19,0,0,1,.24.46,2,2,0,0,1,.08.56v2.21h-.71v-2a2.73,2.73,0,0,0,0-.41,1,1,0,0,0-.12-.35.72.72,0,0,0-.25-.24.83.83,0,0,0-.41-.09.87.87,0,0,0-.69.32,1.34,1.34,0,0,0-.26.86v1.89H159v-2.8c0-.09,0-.22,0-.37s0-.28,0-.39Z"/><path class="cls-3" d="M164.76,55.7h0l1-2.79h.75l-1.73,4.4a3.14,3.14,0,0,1-.19.41,1.81,1.81,0,0,1-.25.3,1.25,1.25,0,0,1-.34.19,1.47,1.47,0,0,1-.45.07l-.23,0a1,1,0,0,1-.24,0l.07-.62a1.12,1.12,0,0,0,.35.06.51.51,0,0,0,.42-.16,1.6,1.6,0,0,0,.25-.44l.22-.59-1.53-3.56h.79Z"/></g></g></svg>
